<?xml version="1.0" encoding="utf-8"?>
<!-- Generator: Adobe Illustrator 24.1.1, SVG Export Plug-In . SVG Version: 6.00 Build 0)  -->
<svg version="1.1" id="Layer_1" xmlns="http://www.w3.org/2000/svg" xmlns:xlink="http://www.w3.org/1999/xlink" x="0px" y="0px"
	 viewBox="0 0 500 500" style="enable-background:new 0 0 500 500;" xml:space="preserve">
<style type="text/css">
	.st0{fill:url(#SVGID_1_);}
</style>
<linearGradient id="SVGID_1_" gradientUnits="userSpaceOnUse" x1="132.5536" y1="154.258" x2="345.0391" y2="366.7436">
	<stop  offset="0" style="stop-color:#FF6CAB"/>
	<stop  offset="1" style="stop-color:#7366FF"/>
</linearGradient>
<path class="st0" d="M350.5,380h50c0,0-75-110-75-110c41.46,0,75-33.54,75-75c0-41.46-33.54-75-75-75l-75.5,0h-75
	c-41.46,0-75,33.54-75,75c0,41.46,33.54,75,75,75c19.34,0,35,15.65,35,35c0,19.35-15.65,35-35,35l-75,0v40h75
	c41.46,0,75-33.54,75-75c0-41.46-33.54-75-75-75c-19.34,0-35-15.65-35-35c0-19.35,15.65-35,35-35l75,0l75.5,0
	c20.73,0,37.5,15.65,37.5,35c0,19.35-16.77,35-37.5,35h-77.27L350.5,380z"/>
</svg>
